<?xml version="1.0" encoding="utf-8"?>
<!-- Generator: Adobe Illustrator 25.2.1, SVG Export Plug-In . SVG Version: 6.00 Build 0)  -->
<svg version="1.1" id="Layer_1" xmlns="http://www.w3.org/2000/svg" xmlns:xlink="http://www.w3.org/1999/xlink" x="0px" y="0px"
	 viewBox="0 0 512 512" style="enable-background:new 0 0 512 512;" xml:space="preserve">
<style type="text/css">
	.st0{fill:#ED5564;}
	.st1{fill:#E6E9ED;}
	.st2{fill:#434A54;}
</style>
<path class="st0" d="M597.8,12.5c-18.1-42.7-44.1-81.2-77.1-114.2s-71.5-59-114.3-77c-44.2-18.8-91.3-28.4-139.9-28.4
	s-95.6,9.5-139.9,28.2c-42.8,18.1-81.3,44.1-114.3,77.1s-59,71.5-77,114.3C-83.5,56.9-93,103.9-93,152.5s9.5,95.6,28.2,140
	c18.1,42.7,44.1,81.2,77.1,114.2s71.5,59,114.3,77.1C171,502.5,218.1,512,266.5,512c48.6,0,95.6-9.5,140-28.2
	c42.8-18.1,81.3-44,114.3-77.1c33-33,59-71.5,77-114.3c18.7-44.4,28.2-91.4,28.2-140C626,103.9,616.5,56.9,597.8,12.5z"/>
<path class="st1" d="M-124.3,263.3c1.4,54.4,11.5,107.2,30.3,157.2c19.6,51.7,47.6,98.2,83.3,138.1s77.2,71.4,123.5,93.3
	c47.9,22.6,98.7,34.2,151.1,34.2c52.5,0,103.3-11.6,151.2-34.2c46.3-21.9,87.8-53.2,123.5-93.3c35.6-39.9,63.7-86.5,83.1-138.3
	c18.8-50,29.1-102.8,30.3-157.2h-776.3V263.3z"/>
<path class="st2" d="M510.8,273.1c0.8-2.5,1.2-5,1.2-7.6c0-2.9-0.5-5.7-1.5-8.5c-12.7,0.6-31,1.4-54,2.1
	c-43.7,1.4-113.9,3.2-200.5,3.2s-156.8-1.7-200.5-3.2c-23-0.8-41.3-1.5-54-2.1c-1,2.8-1.5,5.6-1.5,8.5c0,2.5,0.4,5.1,1.2,7.6
	c41.5,1.9,133,5.2,254.8,5.2S469.2,275,510.8,273.1z"/>
<path class="st1" d="M277.5,266.2c0,11.8-9.6,21.4-21.4,21.4c-11.8,0-21.4-9.6-21.4-21.4c0-11.8,9.6-21.4,21.4-21.4
	C268,244.8,277.5,254.4,277.5,266.2z"/>
<path class="st2" d="M256,235.1c-17.6,0-31.8,14.3-31.8,31.8c0,17.6,14.3,31.8,31.8,31.8s31.8-14.3,31.8-31.8S273.6,235.1,256,235.1
	z M256,281.1c-7.8,0-14.2-6.4-14.2-14.2c0-7.8,6.3-14.2,14.2-14.2c7.8,0,14.2,6.3,14.2,14.2C270.1,274.8,263.8,281.1,256,281.1z"/>
</svg>
