<?xml version="1.0" encoding="utf-8"?>
<!-- Generator: Adobe Illustrator 25.2.1, SVG Export Plug-In . SVG Version: 6.00 Build 0)  -->
<svg version="1.1" id="Слой_1" xmlns="http://www.w3.org/2000/svg" xmlns:xlink="http://www.w3.org/1999/xlink" x="0px" y="0px"
	 viewBox="0 0 100 143" style="enable-background:new 0 0 100 143;" xml:space="preserve">
<style type="text/css">
	.st0{fill:#025FA3;}
	.st1{fill:#2C68B9;enable-background:new    ;}
	.st2{fill:#FFCB05;enable-background:new    ;}
	.st3{fill:#3665A9;}
	.st4{fill:#C7A101;}
	.st5{fill:#FFCB05;}
</style>
<image style="display:none;overflow:visible;enable-background:new    ;" width="100" height="143" id="Слой_1_2_" xlink:href="3FA9E89A5EB35DAC.png"  transform="matrix(1 0 0 1 -0.5444 -0.6533)">
</image>
<polygon class="st0" points="14.2,50.8 0,19.7 34.5,0 96.6,13.4 100,49.3 73.1,72.8 71.6,100.5 36.3,97.8 40,60.7 63.4,42.8 
	61.4,37 51.2,37.7 50,46 45.2,51.9 "/>
<polygon class="st1" points="5.9,16.5 20.7,46 50,46 51.7,34.2 64.1,33.3 66.8,40.3 40,60.7 36.3,97.8 71.6,100.5 73.1,72.8 
	100,49.3 96.6,13.4 34.5,0 "/>
<path class="st2" d="M12.2,16.8l12.1,23.8h22V28.7h22.3l6,14.3L46,62.2l-2.6,31.3l22.7,3l0.3-26.5c0,0,27.4-19.6,27.4-21.1
	s-3.3-32.2-3.3-32.2L34.5,5L12.2,16.8z"/>
<polygon class="st0" points="25.5,110.4 39.3,142.3 78.8,137 83.6,130.6 73.7,103.5 31.5,104.6 "/>
<polygon class="st3" points="31.5,104.6 45.1,137 83.6,130.6 73.7,103.5 "/>
<polygon class="st4" points="39.3,110.4 48.1,130.6 76.4,126.4 70.1,110.4 "/>
<polygon class="st5" points="40.6,113.2 48.1,130.6 71.6,127.1 65.9,113.2 "/>
</svg>
